<svg xmlns="http://www.w3.org/2000/svg" width="1280" height="720" viewBox="0 0 1280 720">
  <defs>
    <linearGradient id="bg" x1="0" y1="0" x2="1" y2="1">
      <stop offset="0" stop-color="#020812"/>
      <stop offset="0.55" stop-color="#061521"/>
      <stop offset="1" stop-color="#02070e"/>
    </linearGradient>
    <radialGradient id="cyanGlow" cx="52%" cy="44%" r="60%">
      <stop offset="0" stop-color="#24c8ff" stop-opacity="0.16"/>
      <stop offset="1" stop-color="#24c8ff" stop-opacity="0"/>
    </radialGradient>
    <pattern id="grid" width="40" height="40" patternUnits="userSpaceOnUse">
      <path d="M 40 0 L 0 0 0 40" fill="none" stroke="#2c5368" stroke-opacity="0.17" stroke-width="1"/>
    </pattern>
    <filter id="shadow" x="-20%" y="-20%" width="140%" height="140%">
      <feDropShadow dx="0" dy="18" stdDeviation="24" flood-color="#000" flood-opacity="0.55"/>
    </filter>
    <filter id="cyanSoft" x="-50%" y="-50%" width="200%" height="200%">
      <feGaussianBlur stdDeviation="16"/>
    </filter>
  </defs>

  <rect width="1280" height="720" fill="url(#bg)"/>
  <rect width="1280" height="720" fill="url(#grid)"/>
  <rect width="1280" height="720" fill="url(#cyanGlow)"/>
  <rect x="0" y="0" width="1280" height="7" fill="#25c9ff"/>

  <g font-family="Inter, SF Pro Display, Arial, sans-serif">
    <g transform="translate(72 50)">
      <rect x="0" y="0" width="48" height="48" rx="10" fill="#071a28" stroke="#25c9ff" stroke-width="2"/>
      <text x="24" y="31" text-anchor="middle" font-size="18" font-weight="800" fill="#eaf7ff">RP</text>
      <text x="66" y="34" font-size="30" font-weight="800" fill="#f3fbff">RetryProof</text>
      <rect x="1000" y="7" width="134" height="34" rx="17" fill="#0b2534" stroke="#2e718e"/>
      <text x="1067" y="29" text-anchor="middle" font-size="13" font-weight="700" letter-spacing="1.6" fill="#7cdbff">MOCK-ONLY</text>
    </g>

    <text x="640" y="177" text-anchor="middle" font-size="28" font-weight="750" letter-spacing="5" fill="#75dbff">ONE RETRY.</text>
    <text x="640" y="245" text-anchor="middle" font-size="68" font-weight="900" letter-spacing="-2" fill="#ffffff">TWO REFUNDS.</text>

    <g filter="url(#shadow)">
      <rect x="90" y="300" width="452" height="225" rx="22" fill="#110c15" stroke="#ff5e78" stroke-width="2"/>
      <rect x="90" y="300" width="452" height="55" rx="22" fill="#2c101c"/>
      <path d="M90 333h452v22H90z" fill="#2c101c"/>
      <circle cx="124" cy="327" r="10" fill="#ff5e78"/>
      <text x="148" y="335" font-size="17" font-weight="800" letter-spacing="2" fill="#ff91a3">BEFORE REPAIR</text>
      <text x="126" y="421" font-size="62" font-weight="900" fill="#ffffff">2</text>
      <text x="184" y="418" font-size="27" font-weight="760" fill="#ffffff">REFUND EFFECTS</text>
      <text x="126" y="475" font-size="19" font-weight="700" fill="#ff7f95">INVARIANT FAILED</text>
      <text x="126" y="505" font-size="15" fill="#9eaeb9">same event · same two deliveries</text>
    </g>

    <g>
      <circle cx="640" cy="412" r="61" fill="#073043" stroke="#25c9ff" stroke-width="2"/>
      <circle cx="640" cy="412" r="44" fill="#25c9ff" opacity="0.11" filter="url(#cyanSoft)"/>
      <path d="M610 412h55m-18-20 20 20-20 20" fill="none" stroke="#8fe5ff" stroke-width="7" stroke-linecap="round" stroke-linejoin="round"/>
    </g>

    <g filter="url(#shadow)">
      <rect x="738" y="300" width="452" height="225" rx="22" fill="#071511" stroke="#5cdf7b" stroke-width="2"/>
      <rect x="738" y="300" width="452" height="55" rx="22" fill="#0c2c1c"/>
      <path d="M738 333h452v22H738z" fill="#0c2c1c"/>
      <circle cx="772" cy="327" r="10" fill="#5cdf7b"/>
      <text x="796" y="335" font-size="17" font-weight="800" letter-spacing="2" fill="#8ff0a6">AFTER REPAIR</text>
      <text x="774" y="421" font-size="62" font-weight="900" fill="#ffffff">1</text>
      <text x="832" y="418" font-size="27" font-weight="760" fill="#ffffff">REFUND EFFECT</text>
      <text x="774" y="475" font-size="19" font-weight="700" fill="#69e489">INVARIANT PASSED</text>
      <text x="774" y="505" font-size="15" fill="#9eaeb9">same event · same seed · same fault</text>
    </g>

    <g transform="translate(162 575)">
      <rect x="0" y="0" width="956" height="77" rx="16" fill="#05111b" stroke="#1a4255"/>
      <text x="478" y="31" text-anchor="middle" font-size="18" font-weight="820" letter-spacing="1.2" fill="#e9f8ff">GPT-5.6 PROPOSES  ·  CODEX REPAIRS</text>
      <text x="478" y="57" text-anchor="middle" font-size="16" font-weight="720" letter-spacing="2.6" fill="#56d4ff">DETERMINISTIC SOFTWARE PROVES</text>
    </g>

    <text x="640" y="688" text-anchor="middle" font-size="13" letter-spacing="1.4" fill="#8096a3">DECLARED FAULT MODEL · NO REAL PAYMENT CALL · NOT A PRODUCTION-SAFETY CLAIM</text>
  </g>
</svg>
